<svg xmlns="http://www.w3.org/2000/svg" viewBox="0 0 200 200">
  <!-- Background -->
  <rect width="200" height="200" fill="#f0f4f8" rx="15" ry="15"/>
  
  <!-- Tracking Area Representation -->
  <rect x="20" y="20" width="160" height="100" fill="#e6eaf4" rx="8" ry="8" stroke="#5048E5" stroke-width="2"/>
  
  <!-- Click Markers -->
  <circle cx="60" cy="50" r="5" fill="#FF6B6B"/>
  <circle cx="110" cy="75" r="5" fill="#14B8A6"/>
  <circle cx="140" cy="90" r="5" fill="#FFB020"/>
  
  <!-- Chart Representations -->
  <rect x="20" y="130" width="80" height="50" fill="#e6eaf4" rx="6" ry="6" stroke="#5048E5" stroke-width="1" stroke-dasharray="3,3"/>
  <rect x="110" y="130" width="80" height="50" fill="#e6eaf4" rx="6" ry="6" stroke="#5048E5" stroke-width="1" stroke-dasharray="3,3"/>
  
  <!-- Bar Chart Simulation -->
  <rect x="35" y="160" width="10" height="15" fill="#5048E5" rx="2" ry="2"/>
  <rect x="50" y="150" width="10" height="25" fill="#14B8A6" rx="2" ry="2"/>
  <rect x="65" y="155" width="10" height="20" fill="#FF6B6B" rx="2" ry="2"/>
  
  <!-- Pie Chart Simulation -->
  <path d="M150,155 A25,25 0 0,1 170,170 L150,170 Z" fill="#5048E5"/>
  <path d="M150,155 A25,25 0 0,0 135,170 L150,170 Z" fill="#14B8A6"/>
  <path d="M150,155 A25,25 0 1,0 170,170 L150,170 Z" fill="#FF6B6B"/>
  
  <!-- Mouse Cursor -->
  <path d="M180,20 L190,30 L185,35 L195,40 L190,45 L180,40 L175,45 L170,35 Z" fill="#374151" stroke="#111827" stroke-width="1"/>
</svg>