<?xml version="1.0" encoding="UTF-8" standalone="no"?>
<!-- Created with Inkscape (http://www.inkscape.org/) -->

<svg
   width="234.04129mm"
   height="234.54167mm"
   viewBox="0 0 234.0413 234.54168"
   version="1.1"
   id="svg1"
   xml:space="preserve"
   inkscape:version="1.3.2 (091e20ef0f, 2023-11-25)"
   sodipodi:docname="integrations.svg"
   xmlns:inkscape="http://www.inkscape.org/namespaces/inkscape"
   xmlns:sodipodi="http://sodipodi.sourceforge.net/DTD/sodipodi-0.dtd"
   xmlns="http://www.w3.org/2000/svg"
   xmlns:svg="http://www.w3.org/2000/svg"><sodipodi:namedview
     id="namedview1"
     pagecolor="#ffffff"
     bordercolor="#666666"
     borderopacity="1.0"
     inkscape:showpageshadow="2"
     inkscape:pageopacity="0.0"
     inkscape:pagecheckerboard="0"
     inkscape:deskcolor="#d1d1d1"
     inkscape:document-units="mm"
     inkscape:zoom="0.13874168"
     inkscape:cx="3704.7266"
     inkscape:cy="2201.9338"
     inkscape:window-width="1893"
     inkscape:window-height="1066"
     inkscape:window-x="0"
     inkscape:window-y="0"
     inkscape:window-maximized="0"
     inkscape:current-layer="layer1"
     showgrid="false" /><defs
     id="defs1" /><g
     inkscape:label="Layer 1"
     inkscape:groupmode="layer"
     id="layer1"
     transform="translate(344.02755,-746.45494)"><path
       id="path90"
       style="fill:#449ee5;stroke-width:1.39261;stroke-linecap:round;stroke-linejoin:round;stroke-miterlimit:10"
       d="m -261.85681,746.55774 79.13882,4.2334 c 38.11383,2.03884 67.01635,30.77388 68.89588,68.89589 l 3.70424,75.13178 c 1.87954,38.12201 -16.37566,86.17776 -54.54398,86.17776 h -110.46978 c -38.16833,0 -68.8959,-30.72757 -68.8959,-68.89589 v -99.00124 c 0,-38.16832 42.82843,-68.64625 82.17072,-66.5417 z"
       sodipodi:nodetypes="sssssssss" /><rect
       style="fill:#4ea8f1;fill-opacity:1;stroke:none;stroke-width:1.32292;stroke-linecap:round;stroke-linejoin:round;stroke-miterlimit:10;stroke-dasharray:none;stroke-opacity:1"
       id="rect90"
       width="217.17703"
       height="217.17703"
       x="-327.29489"
       y="746.55774"
       ry="65.44809" /><g
       style="fill:#ffffff;fill-opacity:1"
       id="g94"
       transform="matrix(6.5625,0,0,6.5625,-271.20638,802.64626)"><path
         fill-rule="nonzero"
         clip-rule="nonzero"
         d="M 0,1.75 C 0,0.783501 0.783502,0 1.75,0 h 12.5 C 15.2165,0 16,0.783502 16,1.75 v 2 C 16,4.16421 15.6642,4.5 15.25,4.5 14.8358,4.5 14.5,4.16421 14.5,3.75 v -2 C 14.5,1.61193 14.3881,1.5 14.25,1.5 H 1.75 C 1.61193,1.5 1.5,1.61193 1.5,1.75 v 12.5 c 0,0.1381 0.11193,0.25 0.25,0.25 h 13.5 C 15.6642,14.5 16,14.8358 16,15.25 16,15.6642 15.6642,16 15.25,16 H 1.75 C 0.783501,16 0,15.2165 0,14.25 Z M 4.75,6.5 C 4.75,6.08579 5.08579,5.75 5.5,5.75 H 9.25 C 9.66421,5.75 10,6.08579 10,6.5 10,6.91421 9.66421,7.25 9.25,7.25 h -1 v 5.25 c 0,0.4142 -0.33579,0.75 -0.75,0.75 -0.41421,0 -0.75,-0.3358 -0.75,-0.75 V 7.25 H 5.5 C 5.08579,7.25 4.75,6.91421 4.75,6.5 Z m 6.5257,0.08011 C 11.6944,6.08164 12.3507,5.75 13.25,5.75 c 0.8349,0 1.4648,0.28567 1.8894,0.73481 0.2845,0.30102 0.2711,0.77571 -0.0299,1.06024 C 14.8085,7.82958 14.3338,7.81621 14.0493,7.51519 13.9394,7.39898 13.7204,7.25 13.25,7.25 12.7493,7.25 12.5306,7.41836 12.4243,7.54489 12.2934,7.70065 12.25,7.896 12.25,8 c 0,0.104 0.0434,0.29935 0.1743,0.45511 0.1063,0.12653 0.325,0.29489 0.8257,0.29489 0.0757,0 0.1488,0.01121 0.2176,0.03207 0.6631,0.09439 1.1643,0.39044 1.5067,0.79804 C 15.3684,10.0493 15.5,10.604 15.5,11 c 0,0.396 -0.1316,0.9507 -0.5257,1.4199 C 14.5556,12.9184 13.8993,13.25 13,13.25 c -0.8349,0 -1.4648,-0.2857 -1.8894,-0.7348 -0.2845,-0.301 -0.2711,-0.7757 0.0299,-1.0603 0.301,-0.2845 0.7757,-0.2711 1.0602,0.0299 0.1099,0.1162 0.3289,0.2652 0.7993,0.2652 0.5007,0 0.7194,-0.1684 0.8257,-0.2949 C 13.9566,11.2993 14,11.104 14,11 14,10.896 13.9566,10.7007 13.8257,10.5449 13.7194,10.4184 13.5007,10.25 13,10.25 12.9243,10.25 12.8512,10.2388 12.7824,10.2179 12.1193,10.1235 11.6181,9.82749 11.2757,9.41989 10.8816,8.95065 10.75,8.396 10.75,8 c 0,-0.396 0.1316,-0.95065 0.5257,-1.41989 z"
         fill="#000000"
         id="path94"
         style="fill:#ffffff;fill-opacity:1" /></g></g><style
     type="text/css"
     id="style1">
	.st0{fill:#000000;}
</style></svg>
